<svg width="56" height="57" viewBox="0 0 56 57" fill="none" xmlns="http://www.w3.org/2000/svg">
<g clip-path="url(#clip0)">
<path d="M54.2017 0.000209374C43.5017 1.10021 33.0017 4.30021 24.4017 11.1002C18.2017 16.0002 13.7017 22.8002 11.0017 30.2002C9.00174 35.5002 8.00174 41.2002 7.70174 46.8002C7.60174 48.1002 7.60174 49.5002 7.60174 50.8002C5.80174 47.6002 4.00174 44.4002 2.00174 41.3002C1.30174 40.2002 -0.498262 41.2002 0.201738 42.3002C3.00174 46.6002 5.40174 51.2002 8.00174 55.6002C8.40174 56.3002 9.40174 56.2002 9.80174 55.6002C12.8017 51.2002 15.8017 46.8002 18.8017 42.4002C19.6017 41.3002 17.8017 40.3002 17.0017 41.4002C14.6017 44.9002 12.1017 48.5002 9.70174 52.0002C9.20174 43.8002 10.9017 35.1002 14.2017 27.7002C17.1017 21.3002 21.5017 15.7002 27.2017 11.5002C35.0017 5.70021 44.7017 3.00021 54.2017 2.00021C55.5017 1.90021 55.6017 -0.0997906 54.2017 0.000209374Z" fill="#ACACAC"/>
</g>
<defs>
<clipPath id="clip0">
<rect width="55.2" height="56.2" fill="white"/>
</clipPath>
</defs>
</svg>
