<svg width="374" height="319" viewBox="0 0 374 319" fill="none" xmlns="http://www.w3.org/2000/svg">
<path fill-rule="evenodd" clip-rule="evenodd" d="M175 168.861L1 168.861L1 168L175 168L175 168.861Z" fill="#014339"/>
<path fill-rule="evenodd" clip-rule="evenodd" d="M373.349 289.075H288.977V318.25H373.349V289.075ZM288.328 288.396V318.929H373.998V288.396H288.328Z" fill="#014339"/>
<path d="M317.809 305.263C317.95 306.454 318.7 307.479 320.776 307.479C322.32 307.479 323.461 306.591 323.461 305.419C323.461 304.102 322.548 303.633 320.82 303.389C319.233 303.174 318.95 302.823 318.95 302.14C318.95 301.486 319.504 301.007 320.57 301.007C321.646 301.007 322.211 301.369 322.396 302.247H323.244C323.092 301.007 322.124 300.324 320.57 300.324C319.102 300.324 318.069 301.144 318.069 302.218C318.069 303.457 319.037 303.916 320.668 304.141C322.146 304.356 322.548 304.687 322.548 305.478C322.548 306.269 321.776 306.796 320.776 306.796C319.211 306.796 318.841 306.093 318.722 305.263H317.809Z" fill="#014339"/>
<path d="M324.591 304.892C324.591 306.464 325.733 307.479 327.342 307.479C328.624 307.479 329.57 306.942 329.766 305.917H328.864C328.744 306.513 328.233 306.805 327.353 306.805C326.189 306.805 325.57 306.161 325.526 305H329.809V304.736C329.809 302.911 328.57 302.198 327.255 302.198C325.689 302.198 324.591 303.272 324.591 304.814V304.892ZM325.559 304.346C325.711 303.438 326.331 302.872 327.255 302.872C328.19 302.872 328.798 303.292 328.885 304.346H325.559Z" fill="#014339"/>
<path d="M331.194 307.391H332.096V304.297C332.096 303.379 332.846 302.901 333.683 302.901C334.596 302.901 335.02 303.301 335.02 304.199V307.391H335.923V304.258C335.923 302.774 335.096 302.198 333.922 302.198C332.988 302.198 332.357 302.618 332.096 303.096V302.286H331.194V307.391Z" fill="#014339"/>
<path d="M337.267 304.941C337.267 306.532 338.343 307.479 339.832 307.479C340.659 307.479 341.452 307.01 341.778 306.513V307.391H342.681V299.846H341.778V303.106C341.452 302.608 340.865 302.198 339.919 302.198C338.354 302.198 337.267 303.301 337.267 304.863V304.941ZM341.811 304.873C341.811 306.181 340.985 306.805 339.93 306.805C338.974 306.805 338.202 306.191 338.202 304.902V304.824C338.202 303.584 338.876 302.872 340.006 302.872C341.115 302.872 341.811 303.487 341.811 304.795V304.873Z" fill="#014339"/>
<path d="M9.19184 9.00329C8.94009 7.87306 8.54988 7.02703 7.68134 6.64367C8.70722 6.18761 9.31142 5.30193 9.31142 3.78834C9.31142 1.67988 8.04638 0.397626 5.39672 0.397626H0.921875V10.8936H3.1058V7.03364H4.66035C6.30931 7.03364 6.69952 7.60867 7.02679 9.18836L7.37924 10.8936H9.60722L9.19184 9.00329ZM3.1058 5.30854V2.34745H5.52259C6.64288 2.34745 7.14008 2.86961 7.14008 3.828C7.14008 4.75995 6.66805 5.30854 5.52259 5.30854H3.1058Z" fill="#014339"/>
<path d="M17.4555 6.74282C17.4555 4.32371 16.1086 2.95553 13.9625 2.95553C11.6338 2.95553 10.2744 4.51539 10.2744 6.98737C10.2744 9.61798 11.8667 11.0457 14.1135 11.0457C15.5107 11.0457 17.2478 10.4838 17.4555 8.34895H15.3723C15.259 9.20819 14.6611 9.48579 14.0254 9.48579C12.8422 9.48579 12.3891 8.55384 12.3576 7.27158H17.4555V6.74282ZM13.9058 4.46251C14.8877 4.46251 15.3345 5.05077 15.3849 6.04881H12.3953C12.5149 5.10364 12.9366 4.46251 13.9058 4.46251Z" fill="#014339"/>
<path d="M23.5227 13.6036H25.5996V3.10755H23.4723V3.9668H23.4345C23.0192 3.38515 22.3961 2.95553 21.3136 2.95553C19.438 2.95553 18.3052 4.59471 18.3052 7.00059C18.3052 9.4197 19.4569 11.0589 21.345 11.0589C22.4968 11.0589 23.1262 10.5632 23.4786 10.0344H23.5227V13.6036ZM22.0373 9.46596C21.0492 9.46596 20.4513 8.73891 20.4513 6.98737C20.4513 5.30854 21.0429 4.56166 22.0373 4.56166C22.994 4.56166 23.6045 5.40768 23.6045 6.98737C23.6045 8.63977 22.9877 9.46596 22.0373 9.46596Z" fill="#014339"/>
<path d="M34.222 3.10755H32.0947V7.31124C32.0947 8.88432 31.4779 9.43953 30.622 9.43953C29.8416 9.43953 29.3569 8.99668 29.3569 7.66155V3.10755H27.2548V8.20354C27.2548 9.98812 28.2681 11.0457 29.7786 11.0457C30.8737 11.0457 31.6416 10.5499 32.057 9.96829H32.1325V10.8936H34.222V3.10755Z" fill="#014339"/>
<path d="M42.6682 6.74282C42.6682 4.32371 41.3213 2.95553 39.1752 2.95553C36.8465 2.95553 35.487 4.51539 35.487 6.98737C35.487 9.61798 37.0794 11.0457 39.3262 11.0457C40.7234 11.0457 42.4605 10.4838 42.6682 8.34895H40.585C40.4717 9.20819 39.8738 9.48579 39.2381 9.48579C38.0549 9.48579 37.6017 8.55384 37.5703 7.27158H42.6682V6.74282ZM39.1185 4.46251C40.1003 4.46251 40.5472 5.05077 40.5975 6.04881H37.608C37.7276 5.10364 38.1493 4.46251 39.1185 4.46251Z" fill="#014339"/>
<path d="M46.9479 11.0523C48.6283 11.0523 50.1766 10.4244 50.1766 8.60011C50.1766 6.57758 48.5339 6.32642 47.2186 6.10169C46.35 5.94306 45.6137 5.79104 45.6137 5.12347C45.6137 4.61454 46.029 4.33032 46.6962 4.33032C47.4577 4.33032 47.9109 4.68724 47.9109 5.46056H49.9249C49.8682 3.71563 48.5717 2.95553 46.671 2.95553C45.0157 2.95553 43.5997 3.56361 43.5997 5.23584C43.5997 7.03364 45.022 7.33768 46.2808 7.5558C47.2626 7.73425 48.15 7.85984 48.15 8.63977C48.15 9.36682 47.6528 9.61798 46.9605 9.61798C46.2116 9.61798 45.6514 9.3536 45.6199 8.34895H43.5367C43.5367 10.5103 45.4185 11.0523 46.9479 11.0523Z" fill="#014339"/>
<path d="M53.6759 10.8936H55.3375V9.26107H54.6955C53.9654 9.26107 53.7892 9.05617 53.7892 8.16388V4.43608H55.3375V3.10755H53.7892V0.853686L51.6745 1.2106V3.10755H50.6675V4.43608H51.6745V8.61333C51.6745 10.16 52.2976 10.8936 53.6759 10.8936Z" fill="#014339"/>
<path d="M63.7144 11.0126C66.2445 11.0126 67.5788 9.64442 67.5788 7.64833C67.5788 5.28871 65.7095 4.83926 64.1424 4.47573C62.9969 4.20474 62.0151 3.97341 62.0151 3.08111C62.0151 2.36728 62.5564 1.93766 63.469 1.93766C64.4193 1.93766 65.0613 2.42016 65.0865 3.46447H67.1823C67.1571 0.893344 65.0172 0.245605 63.4438 0.245605C61.3417 0.245605 59.8752 1.36923 59.8752 3.39176C59.8752 5.46717 61.5053 5.94306 62.9843 6.31981C64.2242 6.62385 65.3697 6.8684 65.3697 7.94576C65.3697 8.74552 64.7655 9.18836 63.7774 9.18836C62.72 9.18836 61.9081 8.67281 61.8578 7.35751H59.7053C59.7053 10.2327 61.8074 11.0126 63.7144 11.0126Z" fill="#014339"/>
<path d="M75.6977 6.74282C75.6977 4.32371 74.3508 2.95553 72.2047 2.95553C69.876 2.95553 68.5165 4.51539 68.5165 6.98737C68.5165 9.61798 70.1088 11.0457 72.3557 11.0457C73.7529 11.0457 75.49 10.4838 75.6977 8.34895H73.6145C73.5012 9.20819 72.9033 9.48579 72.2676 9.48579C71.0844 9.48579 70.6312 8.55384 70.5998 7.27158H75.6977V6.74282ZM72.148 4.46251C73.1298 4.46251 73.5767 5.05077 73.627 6.04881H70.6375C70.7571 5.10364 71.1788 4.46251 72.148 4.46251Z" fill="#014339"/>
<path d="M77.0445 10.8936H79.1718V8.12422C79.1718 6.51809 79.6124 5.45395 80.4809 5.16974C80.8397 4.96484 81.2739 4.90536 81.746 4.93179V3.00841C81.3746 2.98197 80.9655 2.99519 80.632 3.08772C79.9648 3.22652 79.3984 3.68259 79.0774 4.50878H79.0082V3.10755H77.0445V10.8936Z" fill="#014339"/>
<path d="M87.8698 3.10755L86.1516 9.04295L84.4334 3.10755H82.1488L84.8865 10.8936H87.404L90.1418 3.10755H87.8698Z" fill="#014339"/>
<path d="M91.0103 2.02358H93.1754V0.397626H91.0103V2.02358ZM91.0292 10.8936H93.1565V3.10755H91.0292V10.8936Z" fill="#014339"/>
<path d="M98.0971 11.0985C99.9726 11.0985 101.508 9.9749 101.571 7.81357H99.4943C99.4502 9.06939 98.8523 9.49901 98.1097 9.49901C97.1971 9.49901 96.5173 8.86449 96.5173 7.02703C96.5173 5.18296 97.1971 4.54844 98.1097 4.54844C98.8523 4.54844 99.4502 4.98467 99.4943 6.23388H101.571C101.508 4.07255 99.9726 2.95553 98.0971 2.95553C96.0013 2.95553 94.4215 4.35676 94.4215 7.02703C94.4215 9.69069 96.0013 11.0985 98.0971 11.0985Z" fill="#014339"/>
<path d="M109.482 6.74282C109.482 4.32371 108.136 2.95553 105.989 2.95553C103.661 2.95553 102.301 4.51539 102.301 6.98737C102.301 9.61798 103.894 11.0457 106.14 11.0457C107.538 11.0457 109.275 10.4838 109.482 8.34895H107.399C107.286 9.20819 106.688 9.48579 106.052 9.48579C104.869 9.48579 104.416 8.55384 104.385 7.27158H109.482V6.74282ZM105.933 4.46251C106.915 4.46251 107.361 5.05077 107.412 6.04881H104.422C104.542 5.10364 104.964 4.46251 105.933 4.46251Z" fill="#014339"/>
<path d="M113.762 11.0523C115.443 11.0523 116.991 10.4244 116.991 8.60011C116.991 6.57758 115.348 6.32642 114.033 6.10169C113.164 5.94306 112.428 5.79104 112.428 5.12347C112.428 4.61454 112.843 4.33032 113.51 4.33032C114.272 4.33032 114.725 4.68724 114.725 5.46056H116.739C116.682 3.71563 115.386 2.95553 113.485 2.95553C111.83 2.95553 110.414 3.56361 110.414 5.23584C110.414 7.03364 111.836 7.33768 113.095 7.5558C114.077 7.73425 114.964 7.85984 114.964 8.63977C114.964 9.36682 114.467 9.61798 113.775 9.61798C113.026 9.61798 112.466 9.3536 112.434 8.34895H110.351C110.351 10.5103 112.233 11.0523 113.762 11.0523Z" fill="#014339"/>
<path d="M0.921875 61.345H1.9421V57.4056H6.35136V61.345H7.37158V52.4876H6.35136V56.5013H1.9421V52.4876H0.921875V61.345Z" fill="#014339"/>
<path d="M8.96019 58.1737C8.96019 60.1681 10.1915 61.4565 11.9271 61.4565C13.3108 61.4565 14.331 60.7751 14.5421 59.4744H13.5688C13.4398 60.2301 12.8887 60.6017 11.9388 60.6017C10.684 60.6017 10.0156 59.7841 9.96869 58.3099H14.589V57.9755C14.589 55.6589 13.2522 54.7546 11.8332 54.7546C10.1446 54.7546 8.96019 56.1173 8.96019 58.0746V58.1737ZM10.0039 57.4799C10.168 56.3279 10.8365 55.6094 11.8332 55.6094C12.8417 55.6094 13.4984 56.1421 13.5923 57.4799H10.0039Z" fill="#014339"/>
<path d="M15.6355 59.5487C15.6355 60.8742 16.5385 61.4565 17.676 61.4565C18.579 61.4565 19.1301 61.1344 19.5875 60.5274V61.345H20.5608V57.0711C20.5608 55.2625 19.4936 54.7546 18.321 54.7546C17.1366 54.7546 16.0225 55.2997 15.8935 56.7738H16.8669C16.9607 55.981 17.4297 55.6094 18.2741 55.6094C19.2122 55.6094 19.5875 56.0429 19.5875 57.0711V57.5419H18.708C17.1366 57.5419 15.6355 58.0498 15.6355 59.5487ZM19.5875 59.078C19.5875 60.0814 18.8018 60.6389 17.7698 60.6389C16.9138 60.6389 16.6089 60.2177 16.6089 59.5487C16.6089 58.5949 17.5118 58.2728 18.7431 58.2728H19.5875V59.078Z" fill="#014339"/>
<path d="M22.4962 61.345H23.4812V51.7691H22.4962V61.345Z" fill="#014339"/>
<path d="M25.6842 59.7222C25.6842 60.738 26.2236 61.4317 27.3377 61.4317C27.7364 61.4317 27.9709 61.3698 28.1702 61.2954V60.4283C27.9592 60.515 27.7246 60.5645 27.4197 60.5645C26.9272 60.5645 26.6575 60.2549 26.6575 59.6231V55.7332H28.0882V54.8661H26.6575V53.3919H25.6842V54.8661H24.8047V55.7332H25.6842V59.7222Z" fill="#014339"/>
<path d="M29.6416 61.345H30.6149V57.418C30.6149 56.2535 31.4241 55.6465 32.327 55.6465C33.3121 55.6465 33.7694 56.1544 33.7694 57.2941V61.345H34.7427V57.3685C34.7427 55.4855 33.8515 54.7546 32.585 54.7546C31.5765 54.7546 30.8964 55.2873 30.6149 55.8943V51.7691H29.6416V61.345Z" fill="#014339"/>
<path d="M39.2494 59.5487C39.2494 60.8742 40.1523 61.4565 41.2898 61.4565C42.1928 61.4565 42.7439 61.1344 43.2013 60.5274V61.345H44.1746V57.0711C44.1746 55.2625 43.1075 54.7546 41.9348 54.7546C40.7504 54.7546 39.6363 55.2997 39.5074 56.7738H40.4807C40.5745 55.981 41.0436 55.6094 41.8879 55.6094C42.826 55.6094 43.2013 56.0429 43.2013 57.0711V57.5419H42.3218C40.7504 57.5419 39.2494 58.0498 39.2494 59.5487ZM43.2013 59.078C43.2013 60.0814 42.4156 60.6389 41.3836 60.6389C40.5276 60.6389 40.2227 60.2177 40.2227 59.5487C40.2227 58.5949 41.1256 58.2728 42.357 58.2728H43.2013V59.078Z" fill="#014339"/>
<path d="M46.0865 61.345H47.0598V57.418C47.0598 56.2535 47.869 55.6465 48.7719 55.6465C49.757 55.6465 50.2143 56.1544 50.2143 57.2941V61.345H51.1876V57.3685C51.1876 55.4855 50.2964 54.7546 49.0299 54.7546C48.0214 54.7546 47.3413 55.2873 47.0598 55.8943V54.8661H46.0865V61.345Z" fill="#014339"/>
<path d="M52.6377 58.2356C52.6377 60.2549 53.7987 61.4565 55.4052 61.4565C56.2965 61.4565 57.1525 60.8619 57.5043 60.2301V61.345H58.4777V51.7691H57.5043V55.9067C57.1525 55.2749 56.5193 54.7546 55.4991 54.7546C53.8104 54.7546 52.6377 56.1544 52.6377 58.1365V58.2356ZM57.5395 58.1489C57.5395 59.8089 56.6483 60.6017 55.5108 60.6017C54.4788 60.6017 53.6462 59.8213 53.6462 58.1861V58.087C53.6462 56.5137 54.3733 55.6094 55.5929 55.6094C56.789 55.6094 57.5395 56.3898 57.5395 58.0498V58.1489Z" fill="#014339"/>
<path d="M63.0933 58.1737C63.0933 60.1681 64.3246 61.4565 66.0602 61.4565C67.4439 61.4565 68.4642 60.7751 68.6752 59.4744H67.7019C67.5729 60.2301 67.0218 60.6017 66.0719 60.6017C64.8172 60.6017 64.1487 59.7841 64.1018 58.3099H68.7222V57.9755C68.7222 55.6589 67.3853 54.7546 65.9664 54.7546C64.2777 54.7546 63.0933 56.1173 63.0933 58.0746V58.1737ZM64.137 57.4799C64.3012 56.3279 64.9696 55.6094 65.9664 55.6094C66.9749 55.6094 67.6316 56.1421 67.7254 57.4799H64.137Z" fill="#014339"/>
<path d="M70.2157 61.345H71.189V57.418C71.189 56.2535 71.9981 55.6465 72.9011 55.6465C73.8861 55.6465 74.3435 56.1544 74.3435 57.2941V61.345H75.3168V57.3685C75.3168 55.4855 74.4256 54.7546 73.1591 54.7546C72.1506 54.7546 71.4704 55.2873 71.189 55.8943V54.8661H70.2157V61.345Z" fill="#014339"/>
<path d="M78.6459 61.345H79.8889L82.0936 54.8661H81.0851L79.2909 60.3044L77.4732 54.8661H76.4178L78.6459 61.345Z" fill="#014339"/>
<path d="M83.2215 52.8345C83.2215 53.2061 83.5146 53.5158 83.8664 53.5158C84.2182 53.5158 84.5114 53.2061 84.5114 52.8345C84.5114 52.4628 84.2182 52.1531 83.8664 52.1531C83.5146 52.1531 83.2215 52.4628 83.2215 52.8345ZM83.3974 61.345H84.3707V54.8661H83.3974V61.345Z" fill="#014339"/>
<path d="M86.3628 61.345H87.3362V57.7896C87.3362 56.1916 88.1219 55.7828 89.3532 55.7209V54.7546C88.2509 54.7918 87.7231 55.2997 87.3362 56.0306V54.8661H86.3628V61.345Z" fill="#014339"/>
<path d="M90.1427 58.1613C90.1427 60.0566 91.3975 61.4565 93.1448 61.4565C94.892 61.4565 96.1702 60.1062 96.1702 58.1489V58.0498C96.1702 56.1049 94.892 54.7546 93.1565 54.7546C91.4209 54.7546 90.1427 56.1173 90.1427 58.0622V58.1613ZM95.1618 58.1613C95.1618 59.6231 94.3878 60.6017 93.1565 60.6017C91.9134 60.6017 91.1512 59.6355 91.1512 58.1613V58.0622C91.1512 56.5756 91.9252 55.6094 93.1565 55.6094C94.3761 55.6094 95.1618 56.5756 95.1618 58.0746V58.1613Z" fill="#014339"/>
<path d="M97.6773 61.345H98.6506V57.418C98.6506 56.2535 99.4598 55.6465 100.363 55.6465C101.348 55.6465 101.805 56.1544 101.805 57.2941V61.345H102.778V57.3685C102.778 55.4855 101.887 54.7546 100.621 54.7546C99.6122 54.7546 98.9321 55.2873 98.6506 55.8943V54.8661H97.6773V61.345Z" fill="#014339"/>
<path d="M104.686 61.345H105.659V57.3808C105.659 56.2164 106.48 55.6465 107.277 55.6465C108.122 55.6465 108.579 56.1173 108.579 57.257V61.345H109.552V57.3808C109.552 56.2164 110.373 55.6465 111.171 55.6465C112.015 55.6465 112.472 56.1173 112.472 57.257V61.345H113.446V57.3313C113.446 55.4483 112.484 54.7546 111.382 54.7546C110.62 54.7546 109.705 55.1262 109.283 55.9686C108.966 55.1015 108.274 54.7546 107.489 54.7546C106.609 54.7546 105.941 55.2501 105.659 55.8571V54.8661H104.686V61.345Z" fill="#014339"/>
<path d="M114.902 58.1737C114.902 60.1681 116.133 61.4565 117.869 61.4565C119.252 61.4565 120.273 60.7751 120.484 59.4744H119.51C119.381 60.2301 118.83 60.6017 117.88 60.6017C116.626 60.6017 115.957 59.7841 115.91 58.3099H120.531V57.9755C120.531 55.6589 119.194 54.7546 117.775 54.7546C116.086 54.7546 114.902 56.1173 114.902 58.0746V58.1737ZM115.945 57.4799C116.11 56.3279 116.778 55.6094 117.775 55.6094C118.783 55.6094 119.44 56.1421 119.534 57.4799H115.945Z" fill="#014339"/>
<path d="M122.024 61.345H122.997V57.418C122.997 56.2535 123.807 55.6465 124.709 55.6465C125.695 55.6465 126.152 56.1544 126.152 57.2941V61.345H127.125V57.3685C127.125 55.4855 126.234 54.7546 124.967 54.7546C123.959 54.7546 123.279 55.2873 122.997 55.8943V54.8661H122.024V61.345Z" fill="#014339"/>
<path d="M129.244 59.7222C129.244 60.738 129.783 61.4317 130.897 61.4317C131.296 61.4317 131.53 61.3698 131.73 61.2954V60.4283C131.519 60.515 131.284 60.5645 130.979 60.5645C130.487 60.5645 130.217 60.2549 130.217 59.6231V55.7332H131.648V54.8661H130.217V53.3919H129.244V54.8661H128.364V55.7332H129.244V59.7222Z" fill="#014339"/>
<path d="M0.921875 107.061H1.93946V103.847H3.29624C4.88694 103.847 6.22033 103.195 6.22033 101.516V101.472C6.22033 99.8257 4.89864 99.1629 3.29624 99.1629H0.921875V107.061ZM1.93946 103.084V99.9361H3.36642C4.50096 99.9361 5.20275 100.356 5.20275 101.472V101.516C5.20275 102.532 4.55945 103.084 3.36642 103.084H1.93946Z" fill="#014339"/>
<path d="M7.49587 99.4722C7.49587 99.8036 7.78828 100.08 8.13917 100.08C8.49006 100.08 8.78247 99.8036 8.78247 99.4722C8.78247 99.1408 8.49006 98.8646 8.13917 98.8646C7.78828 98.8646 7.49587 99.1408 7.49587 99.4722ZM7.67132 107.061H8.64212V101.284H7.67132V107.061Z" fill="#014339"/>
<path d="M11.1789 109.072H12.1614L15.5416 101.284H14.5474L12.8514 105.426L10.98 101.284H9.93904L12.3368 106.465L11.1789 109.072Z" fill="#014339"/>
<path d="M16.2599 105.46C16.2599 106.642 17.1605 107.161 18.2951 107.161C19.1957 107.161 19.7454 106.874 20.2016 106.332V107.061H21.1724V103.25C21.1724 101.637 20.108 101.184 18.9384 101.184C17.7571 101.184 16.6459 101.67 16.5172 102.985H17.488C17.5816 102.278 18.0495 101.947 18.8916 101.947C19.8273 101.947 20.2016 102.333 20.2016 103.25V103.67H19.3244C17.7571 103.67 16.2599 104.123 16.2599 105.46ZM20.2016 105.04C20.2016 105.935 19.4179 106.432 18.3887 106.432C17.5348 106.432 17.2307 106.056 17.2307 105.46C17.2307 104.609 18.1313 104.322 19.3595 104.322H20.2016V105.04Z" fill="#014339"/>
<path d="M24.1933 107.061H25.2576L26.6846 102.731L27.9595 107.061H29.0356L30.9421 101.284H29.9479L28.5092 105.935L27.1174 101.284H26.2752L24.7898 105.935L23.3628 101.284H22.3101L24.1933 107.061Z" fill="#014339"/>
<path d="M32.1929 104.94C32.1929 106.531 33.1053 107.161 34.3217 107.161C35.3042 107.161 35.9826 106.686 36.2633 106.144V107.061H37.2341V101.284H36.2633V104.786C36.2633 105.824 35.4445 106.365 34.579 106.365C33.6199 106.365 33.1637 105.912 33.1637 104.896V101.284H32.1929V104.94Z" fill="#014339"/>
<path d="M39.4067 105.614C39.4067 106.52 39.9447 107.139 41.0559 107.139C41.4535 107.139 41.6875 107.083 41.8863 107.017V106.244C41.6758 106.321 41.4418 106.365 41.1377 106.365C40.6465 106.365 40.3775 106.089 40.3775 105.526V102.057H41.8044V101.284H40.3775V99.9693H39.4067V101.284H38.5294V102.057H39.4067V105.614Z" fill="#014339"/>
<path d="M46.0282 104.653C46.1802 106.001 46.9873 107.161 49.2213 107.161C50.8822 107.161 52.1103 106.155 52.1103 104.83C52.1103 103.339 51.1278 102.808 49.2681 102.532C47.5604 102.289 47.2563 101.891 47.2563 101.118C47.2563 100.378 47.8528 99.8367 48.9991 99.8367C50.157 99.8367 50.7652 100.245 50.964 101.24H51.8764C51.7126 99.8367 50.6716 99.0634 48.9991 99.0634C47.42 99.0634 46.3089 99.9914 46.3089 101.207C46.3089 102.609 47.3499 103.129 49.1043 103.383C50.695 103.626 51.1278 104.001 51.1278 104.896C51.1278 105.791 50.2974 106.387 49.2213 106.387C47.537 106.387 47.1393 105.592 47.0107 104.653H46.0282Z" fill="#014339"/>
<path d="M53.6667 104.94C53.6667 106.531 54.579 107.161 55.7955 107.161C56.778 107.161 57.4564 106.686 57.7371 106.144V107.061H58.7079V101.284H57.7371V104.786C57.7371 105.824 56.9183 106.365 56.0528 106.365C55.0937 106.365 54.6375 105.912 54.6375 104.896V101.284H53.6667V104.94Z" fill="#014339"/>
<path d="M60.6699 107.061H61.6407V104.068L64.3543 107.061H65.5356L62.6934 103.968L65.3134 101.284H64.1788L61.6407 103.946V98.5222H60.6699V107.061Z" fill="#014339"/>
<path d="M66.9114 105.614C66.9114 106.52 67.4494 107.139 68.5606 107.139C68.9583 107.139 69.1922 107.083 69.391 107.017V106.244C69.1805 106.321 68.9466 106.365 68.6425 106.365C68.1512 106.365 67.8822 106.089 67.8822 105.526V102.057H69.3092V101.284H67.8822V99.9693H66.9114V101.284H66.0342V102.057H66.9114V105.614Z" fill="#014339"/>
<path d="M70.4024 104.222C70.4024 105.912 71.6539 107.161 73.3967 107.161C75.1394 107.161 76.4143 105.957 76.4143 104.211V104.123C76.4143 102.389 75.1394 101.184 73.4084 101.184C71.6773 101.184 70.4024 102.4 70.4024 104.134V104.222ZM75.4084 104.222C75.4084 105.526 74.6365 106.399 73.4084 106.399C72.1686 106.399 71.4083 105.537 71.4083 104.222V104.134C71.4083 102.808 72.1803 101.947 73.4084 101.947C74.6248 101.947 75.4084 102.808 75.4084 104.145V104.222Z" fill="#014339"/>
<path d="M77.9175 107.061H78.8883V103.559C78.8883 102.521 79.6954 101.98 80.596 101.98C81.5785 101.98 82.0346 102.433 82.0346 103.449V107.061H83.0054V103.515C83.0054 101.836 82.1165 101.184 80.8533 101.184C79.8474 101.184 79.169 101.659 78.8883 102.201V101.284H77.9175V107.061Z" fill="#014339"/>
<path d="M84.5804 107.393C84.7442 108.365 85.5395 109.171 87.3525 109.171C89.0601 109.171 90.2649 108.354 90.2766 106.675V101.284H89.3057V102.212C88.9549 101.648 88.3232 101.184 87.3057 101.184C85.6214 101.184 84.4518 102.488 84.4518 104.057V104.134C84.4518 105.725 85.6331 106.874 87.2355 106.874C88.1244 106.874 88.9549 106.343 89.3057 105.78V106.619C89.3057 107.857 88.5455 108.398 87.3408 108.398C86.2998 108.398 85.715 108.056 85.5746 107.393H84.5804ZM89.3408 104.068C89.3408 105.36 88.4753 106.111 87.3408 106.111C86.3115 106.111 85.4576 105.36 85.4576 104.101V104.012C85.4576 102.797 86.1828 101.947 87.3992 101.947C88.5923 101.947 89.3408 102.698 89.3408 103.99V104.068Z" fill="#014339"/>
<g opacity="0.5">
<path d="M2.77565 199.357H3.78604V195.754L6.41072 191.074H5.40033L3.30988 194.92L1.13813 191.074H0L2.77565 195.743V199.357Z" fill="#014339"/>
<path d="M6.37987 196.38C6.37987 198.152 7.62252 199.461 9.35295 199.461C11.0834 199.461 12.3493 198.198 12.3493 196.368V196.275C12.3493 194.457 11.0834 193.194 9.36457 193.194C7.64575 193.194 6.37987 194.468 6.37987 196.287V196.38ZM11.3505 196.38C11.3505 197.747 10.584 198.662 9.36457 198.662C8.13352 198.662 7.37864 197.758 7.37864 196.38V196.287C7.37864 194.897 8.14514 193.993 9.36457 193.993C10.5724 193.993 11.3505 194.897 11.3505 196.299V196.38Z" fill="#014339"/>
<path d="M13.7837 197.133C13.7837 198.801 14.6896 199.461 15.8974 199.461C16.8729 199.461 17.5465 198.963 17.8253 198.395V199.357H18.7892V193.298H17.8253V196.97C17.8253 198.059 17.0123 198.627 16.1529 198.627C15.2006 198.627 14.7477 198.152 14.7477 197.086V193.298H13.7837V197.133Z" fill="#014339"/>
<path d="M20.7374 199.357H21.7013V196.032C21.7013 194.538 22.4794 194.155 23.6989 194.098V193.194C22.6072 193.229 22.0846 193.704 21.7013 194.387V193.298H20.7374V199.357Z" fill="#014339"/>
<path d="M28.247 199.357H29.1761V192.383L32.0215 199.357H32.335L35.0875 192.383V199.357H36.0978V191.074H34.7042L32.2189 197.527L29.6523 191.074H28.247V199.357Z" fill="#014339"/>
<path d="M37.6708 196.391C37.6708 198.256 38.8903 199.461 40.6091 199.461C41.9795 199.461 42.9899 198.824 43.1989 197.608H42.235C42.1073 198.314 41.5614 198.662 40.6207 198.662C39.378 198.662 38.7161 197.897 38.6696 196.519H43.2454V196.206C43.2454 194.04 41.9214 193.194 40.5162 193.194C38.8438 193.194 37.6708 194.468 37.6708 196.299V196.391ZM38.7045 195.743C38.8671 194.665 39.529 193.993 40.5162 193.993C41.515 193.993 42.1653 194.491 42.2582 195.743H38.7045Z" fill="#014339"/>
<path d="M44.2818 197.492C44.3399 198.731 45.2109 199.461 46.6626 199.461C48.1375 199.461 48.8924 198.72 48.8924 197.619C48.8924 196.333 48.0098 196.055 46.7555 195.824C45.6406 195.627 45.3386 195.407 45.3386 194.862C45.3386 194.341 45.7916 193.993 46.4884 193.993C47.2549 193.993 47.6265 194.283 47.7659 194.943H48.695C48.5324 193.634 47.5917 193.194 46.5 193.194C45.5477 193.194 44.4444 193.773 44.4444 194.897C44.4444 195.951 44.9786 196.391 46.5581 196.681C47.4988 196.855 47.9749 197.063 47.9749 197.7C47.9749 198.349 47.5685 198.662 46.651 198.662C45.6754 198.662 45.2922 198.21 45.2225 197.492H44.2818Z" fill="#014339"/>
<path d="M49.8618 197.492C49.9199 198.731 50.7909 199.461 52.2426 199.461C53.7175 199.461 54.4724 198.72 54.4724 197.619C54.4724 196.333 53.5898 196.055 52.3355 195.824C51.2206 195.627 50.9186 195.407 50.9186 194.862C50.9186 194.341 51.3716 193.993 52.0684 193.993C52.8349 193.993 53.2065 194.283 53.3459 194.943H54.275C54.1124 193.634 53.1717 193.194 52.08 193.194C51.1277 193.194 50.0244 193.773 50.0244 194.897C50.0244 195.951 50.5586 196.391 52.1381 196.681C53.0788 196.855 53.5549 197.063 53.5549 197.7C53.5549 198.349 53.1484 198.662 52.231 198.662C51.2554 198.662 50.8722 198.21 50.8025 197.492H49.8618Z" fill="#014339"/>
<path d="M55.4418 197.677C55.4418 198.917 56.336 199.461 57.4625 199.461C58.3568 199.461 58.9026 199.16 59.3556 198.592V199.357H60.3195V195.36C60.3195 193.669 59.2626 193.194 58.1013 193.194C56.9283 193.194 55.825 193.704 55.6973 195.082H56.6612C56.7541 194.341 57.2187 193.993 58.0548 193.993C58.9839 193.993 59.3556 194.399 59.3556 195.36V195.8H58.4845C56.9283 195.8 55.4418 196.275 55.4418 197.677ZM59.3556 197.237C59.3556 198.175 58.5774 198.697 57.5554 198.697C56.7076 198.697 56.4057 198.303 56.4057 197.677C56.4057 196.785 57.2999 196.484 58.5194 196.484H59.3556V197.237Z" fill="#014339"/>
<path d="M61.8878 199.704C62.0504 200.724 62.8401 201.57 64.6402 201.57C66.3358 201.57 67.532 200.712 67.5436 198.951V193.298H66.5797V194.271C66.2313 193.68 65.6041 193.194 64.5938 193.194C62.9214 193.194 61.76 194.561 61.76 196.206V196.287C61.76 197.955 62.933 199.16 64.5241 199.16C65.4067 199.16 66.2313 198.604 66.5797 198.013V198.893C66.5797 200.191 65.8248 200.759 64.6286 200.759C63.595 200.759 63.0143 200.399 62.8749 199.704H61.8878ZM66.6145 196.217C66.6145 197.573 65.7551 198.361 64.6286 198.361C63.6066 198.361 62.7588 197.573 62.7588 196.252V196.16C62.7588 194.885 63.4788 193.993 64.6867 193.993C65.8712 193.993 66.6145 194.781 66.6145 196.136V196.217Z" fill="#014339"/>
<path d="M69.0412 196.391C69.0412 198.256 70.2606 199.461 71.9795 199.461C73.3499 199.461 74.3603 198.824 74.5693 197.608H73.6054C73.4776 198.314 72.9318 198.662 71.9911 198.662C70.7484 198.662 70.0864 197.897 70.04 196.519H74.6158V196.206C74.6158 194.04 73.2918 193.194 71.8866 193.194C70.2142 193.194 69.0412 194.468 69.0412 196.299V196.391ZM70.0748 195.743C70.2374 194.665 70.8994 193.993 71.8866 193.993C72.8853 193.993 73.5357 194.491 73.6286 195.743H70.0748Z" fill="#014339"/>
</g>
<g opacity="0.5">
<path d="M0.921875 153.764H5.97106V152.984H1.93171V150.14H5.01926V149.36H1.93171V146.692H5.76213V145.912H0.921875V153.764Z" fill="#014339"/>
<path d="M7.42669 153.764H8.3901V150.25C8.3901 149.217 9.20261 148.712 9.9919 148.712C10.8276 148.712 11.2803 149.13 11.2803 150.14V153.764H12.2437V150.25C12.2437 149.217 13.0562 148.712 13.8455 148.712C14.6813 148.712 15.1339 149.13 15.1339 150.14V153.764H16.0974V150.206C16.0974 148.537 15.1456 147.922 14.0545 147.922C13.3 147.922 12.3946 148.251 11.9768 148.998C11.6634 148.229 10.9785 147.922 10.2008 147.922C9.33029 147.922 8.66867 148.361 8.3901 148.899V148.02H7.42669V153.764Z" fill="#014339"/>
<path d="M17.492 152.171C17.492 153.346 18.3858 153.862 19.5117 153.862C20.4055 153.862 20.951 153.577 21.4037 153.039V153.764H22.3671V149.975C22.3671 148.372 21.3109 147.922 20.1501 147.922C18.9778 147.922 17.8751 148.405 17.7474 149.712H18.7108C18.8037 149.009 19.268 148.679 20.1037 148.679C21.0323 148.679 21.4037 149.064 21.4037 149.975V150.392H20.5332C18.9778 150.392 17.492 150.843 17.492 152.171ZM21.4037 151.754C21.4037 152.644 20.626 153.138 19.6046 153.138C18.7572 153.138 18.4555 152.764 18.4555 152.171C18.4555 151.326 19.3492 151.04 20.568 151.04H21.4037V151.754Z" fill="#014339"/>
<path d="M24.1087 146.22C24.1087 146.549 24.3989 146.823 24.7471 146.823C25.0953 146.823 25.3855 146.549 25.3855 146.22C25.3855 145.89 25.0953 145.616 24.7471 145.616C24.3989 145.616 24.1087 145.89 24.1087 146.22ZM24.2828 153.764H25.2462V148.02H24.2828V153.764Z" fill="#014339"/>
<path d="M27.2413 153.764H28.2163V145.275H27.2413V153.764Z" fill="#014339"/>
<path d="M32.7607 152.171C32.7607 153.346 33.6544 153.862 34.7803 153.862C35.6741 153.862 36.2196 153.577 36.6723 153.039V153.764H37.6357V149.975C37.6357 148.372 36.5795 147.922 35.4187 147.922C34.2464 147.922 33.1437 148.405 33.016 149.712H33.9794C34.0723 149.009 34.5366 148.679 35.3723 148.679C36.3009 148.679 36.6723 149.064 36.6723 149.975V150.392H35.8018C34.2464 150.392 32.7607 150.843 32.7607 152.171ZM36.6723 151.754C36.6723 152.644 35.8946 153.138 34.8732 153.138C34.0259 153.138 33.7241 152.764 33.7241 152.171C33.7241 151.326 34.6178 151.04 35.8366 151.04H36.6723V151.754Z" fill="#014339"/>
<path d="M39.0755 151.007C39.0755 152.797 40.2246 153.862 41.8148 153.862C42.697 153.862 43.5443 153.335 43.8925 152.775V153.764H44.8559V145.275H43.8925V148.943C43.5443 148.383 42.9175 147.922 41.9077 147.922C40.2362 147.922 39.0755 149.162 39.0755 150.919V151.007ZM43.9273 150.93C43.9273 152.402 43.0452 153.105 41.9193 153.105C40.8978 153.105 40.0737 152.413 40.0737 150.963V150.876C40.0737 149.481 40.7934 148.679 42.0005 148.679C43.1845 148.679 43.9273 149.371 43.9273 150.843V150.93Z" fill="#014339"/>
<path d="M46.3527 151.007C46.3527 152.797 47.5019 153.862 49.0921 153.862C49.9742 153.862 50.8215 153.335 51.1698 152.775V153.764H52.1332V145.275H51.1698V148.943C50.8215 148.383 50.1948 147.922 49.1849 147.922C47.5135 147.922 46.3527 149.162 46.3527 150.919V151.007ZM51.2046 150.93C51.2046 152.402 50.3224 153.105 49.1965 153.105C48.1751 153.105 47.351 152.413 47.351 150.963V150.876C47.351 149.481 48.0706 148.679 49.2778 148.679C50.4617 148.679 51.2046 149.371 51.2046 150.843V150.93Z" fill="#014339"/>
<path d="M54.0827 153.764H55.0461V150.612C55.0461 149.195 55.8238 148.833 57.0425 148.778V147.922C55.9514 147.955 55.4291 148.405 55.0461 149.053V148.02H54.0827V153.764Z" fill="#014339"/>
<path d="M57.824 150.952C57.824 152.72 59.0428 153.862 60.7607 153.862C62.1303 153.862 63.1402 153.258 63.3491 152.105H62.3857C62.258 152.775 61.7125 153.105 60.7723 153.105C59.5303 153.105 58.8687 152.38 58.8223 151.073H63.3955V150.777C63.3955 148.723 62.0723 147.922 60.6678 147.922C58.9964 147.922 57.824 149.13 57.824 150.865V150.952ZM58.8571 150.337C59.0196 149.316 59.6812 148.679 60.6678 148.679C61.666 148.679 62.3161 149.152 62.4089 150.337H58.8571Z" fill="#014339"/>
<path d="M64.4314 151.996C64.4894 153.171 65.36 153.862 66.8109 153.862C68.285 153.862 69.0395 153.16 69.0395 152.116C69.0395 150.898 68.1573 150.634 66.9038 150.414C65.7895 150.228 65.4877 150.019 65.4877 149.503C65.4877 149.009 65.9403 148.679 66.6368 148.679C67.4029 148.679 67.7743 148.954 67.9136 149.58H68.8422C68.6797 148.339 67.7395 147.922 66.6484 147.922C65.6966 147.922 64.5939 148.471 64.5939 149.536C64.5939 150.535 65.1278 150.952 66.7064 151.227C67.6466 151.392 68.1225 151.589 68.1225 152.193C68.1225 152.808 67.7163 153.105 66.7993 153.105C65.8243 153.105 65.4412 152.676 65.3716 151.996H64.4314Z" fill="#014339"/>
<path d="M70.0083 151.996C70.0664 153.171 70.9369 153.862 72.3878 153.862C73.862 153.862 74.6165 153.16 74.6165 152.116C74.6165 150.898 73.7343 150.634 72.4807 150.414C71.3664 150.228 71.0646 150.019 71.0646 149.503C71.0646 149.009 71.5173 148.679 72.2137 148.679C72.9798 148.679 73.3513 148.954 73.4905 149.58H74.4191C74.2566 148.339 73.3164 147.922 72.2253 147.922C71.2735 147.922 70.1709 148.471 70.1709 149.536C70.1709 150.535 70.7048 150.952 72.2834 151.227C73.2236 151.392 73.6995 151.589 73.6995 152.193C73.6995 152.808 73.2932 153.105 72.3762 153.105C71.4012 153.105 71.0182 152.676 70.9485 151.996H70.0083Z" fill="#014339"/>
</g>
<g opacity="0.5">
<path d="M193.445 153.764H194.453V150.568H195.797C197.373 150.568 198.693 149.92 198.693 148.251V148.207C198.693 146.571 197.384 145.912 195.797 145.912H193.445V153.764ZM194.453 149.81V146.681H195.867C196.99 146.681 197.685 147.098 197.685 148.207V148.251C197.685 149.261 197.048 149.81 195.867 149.81H194.453Z" fill="#014339"/>
<path d="M200.107 153.764H201.069V150.283C201.069 149.25 201.868 148.712 202.76 148.712C203.733 148.712 204.185 149.162 204.185 150.173V153.764H205.147V150.239C205.147 148.57 204.266 147.922 203.015 147.922C202.019 147.922 201.347 148.394 201.069 148.932V145.275H200.107V153.764Z" fill="#014339"/>
<path d="M206.579 150.941C206.579 152.622 207.819 153.862 209.545 153.862C211.271 153.862 212.534 152.665 212.534 150.93V150.843C212.534 149.119 211.271 147.922 209.557 147.922C207.842 147.922 206.579 149.13 206.579 150.854V150.941ZM211.538 150.941C211.538 152.237 210.773 153.105 209.557 153.105C208.329 153.105 207.576 152.248 207.576 150.941V150.854C207.576 149.536 208.34 148.679 209.557 148.679C210.762 148.679 211.538 149.536 211.538 150.865V150.941Z" fill="#014339"/>
<path d="M214.023 153.764H214.985V150.283C214.985 149.25 215.784 148.712 216.676 148.712C217.649 148.712 218.101 149.162 218.101 150.173V153.764H219.062V150.239C219.062 148.57 218.182 147.922 216.931 147.922C215.934 147.922 215.263 148.394 214.985 148.932V148.02H214.023V153.764Z" fill="#014339"/>
<path d="M220.495 150.952C220.495 152.72 221.711 153.862 223.426 153.862C224.793 153.862 225.801 153.258 226.009 152.105H225.048C224.92 152.775 224.376 153.105 223.438 153.105C222.198 153.105 221.538 152.38 221.491 151.073H226.056V150.777C226.056 148.723 224.735 147.922 223.333 147.922C221.665 147.922 220.495 149.13 220.495 150.865V150.952ZM221.526 150.337C221.688 149.316 222.349 148.679 223.333 148.679C224.33 148.679 224.978 149.152 225.071 150.337H221.526Z" fill="#014339"/>
<path d="M230.597 153.764H231.559V150.283C231.559 149.25 232.358 148.712 233.25 148.712C234.223 148.712 234.675 149.162 234.675 150.173V153.764H235.637V150.239C235.637 148.57 234.756 147.922 233.505 147.922C232.509 147.922 231.837 148.394 231.559 148.932V148.02H230.597V153.764Z" fill="#014339"/>
<path d="M237.463 151.655C237.463 153.237 238.367 153.862 239.572 153.862C240.545 153.862 241.217 153.39 241.495 152.852V153.764H242.456V148.02H241.495V151.501C241.495 152.534 240.684 153.072 239.827 153.072C238.877 153.072 238.425 152.622 238.425 151.611V148.02H237.463V151.655Z" fill="#014339"/>
<path d="M244.4 153.764H245.361V150.25C245.361 149.217 246.172 148.712 246.96 148.712C247.794 148.712 248.246 149.13 248.246 150.14V153.764H249.207V150.25C249.207 149.217 250.018 148.712 250.806 148.712C251.64 148.712 252.092 149.13 252.092 150.14V153.764H253.054V150.206C253.054 148.537 252.104 147.922 251.015 147.922C250.262 147.922 249.358 148.251 248.941 148.998C248.628 148.229 247.945 147.922 247.169 147.922C246.3 147.922 245.639 148.361 245.361 148.899V148.02H244.4V153.764Z" fill="#014339"/>
<path d="M255.905 152.819C256.253 153.39 256.971 153.862 257.956 153.862C259.624 153.862 260.713 152.655 260.713 150.898V150.81C260.713 149.02 259.543 147.922 257.956 147.922C257.076 147.922 256.253 148.427 255.905 148.987V145.275H254.944V153.764H255.905V152.819ZM259.717 150.941C259.717 152.336 259.068 153.105 257.863 153.105C256.682 153.105 255.871 152.413 255.871 150.941V150.854C255.871 149.382 256.728 148.679 257.852 148.679C258.871 148.679 259.717 149.404 259.717 150.854V150.941Z" fill="#014339"/>
<path d="M261.755 150.952C261.755 152.72 262.972 153.862 264.686 153.862C266.053 153.862 267.061 153.258 267.27 152.105H266.308C266.181 152.775 265.636 153.105 264.698 153.105C263.458 153.105 262.798 152.38 262.752 151.073H267.316V150.777C267.316 148.723 265.995 147.922 264.594 147.922C262.925 147.922 261.755 149.13 261.755 150.865V150.952ZM262.786 150.337C262.949 149.316 263.609 148.679 264.594 148.679C265.59 148.679 266.239 149.152 266.331 150.337H262.786Z" fill="#014339"/>
<path d="M268.792 153.764H269.753V150.612C269.753 149.195 270.529 148.833 271.746 148.778V147.922C270.657 147.955 270.135 148.405 269.753 149.053V148.02H268.792V153.764Z" fill="#014339"/>
</g>
<path fill-rule="evenodd" clip-rule="evenodd" d="M362.945 52.5077L363.633 51.7691L368.472 56.9709L373.312 51.7691L374 52.5077L368.472 58.4481L362.945 52.5077Z" fill="#014339"/>
<path fill-rule="evenodd" clip-rule="evenodd" d="M374.001 75.6227L0.921875 75.6227L0.921875 74.6686L374.001 74.6685L374.001 75.6227Z" fill="#014339"/>
<path fill-rule="evenodd" clip-rule="evenodd" d="M374.001 124.284L0.921875 124.284L0.921875 123.33L374.001 123.33L374.001 124.284Z" fill="#014339"/>
<path fill-rule="evenodd" clip-rule="evenodd" d="M373.996 168.965L192.523 168.965L192.523 168.011L373.996 168.011L373.996 168.965Z" fill="#014339"/>
<path fill-rule="evenodd" clip-rule="evenodd" d="M374.001 267.405L0.921875 267.405L0.921875 266.451L374.001 266.451L374.001 267.405Z" fill="#014339"/>
</svg>
