<svg width="128" height="70" viewBox="0 0 128 70" fill="none" xmlns="http://www.w3.org/2000/svg">
<path d="M66.512 15.302C66.512 18.434 68.186 20.162 71.138 20.162C74.45 20.162 76.016 18.236 76.016 15.104V7.13H74.45V14.888C74.45 18.038 73.226 18.866 71.174 18.866C69.032 18.866 68.078 17.822 68.078 15.122V7.13H66.512V15.302ZM78.1833 17.102C78.2733 19.028 79.6233 20.162 81.8733 20.162C84.1593 20.162 85.3293 19.01 85.3293 17.3C85.3293 15.302 83.9613 14.87 82.0173 14.51C80.2893 14.204 79.8213 13.862 79.8213 13.016C79.8213 12.206 80.5233 11.666 81.6033 11.666C82.7913 11.666 83.3673 12.116 83.5833 13.142H85.0233C84.7713 11.108 83.3133 10.424 81.6213 10.424C80.1453 10.424 78.4353 11.324 78.4353 13.07C78.4353 14.708 79.2633 15.392 81.7113 15.842C83.1693 16.112 83.9073 16.436 83.9073 17.426C83.9073 18.434 83.2773 18.92 81.8553 18.92C80.3433 18.92 79.7493 18.218 79.6413 17.102H78.1833ZM86.9038 15.392C86.9038 18.29 88.7938 20.162 91.4578 20.162C93.5818 20.162 95.1478 19.172 95.4718 17.282H93.9778C93.7798 18.38 92.9338 18.92 91.4758 18.92C89.5498 18.92 88.5238 17.732 88.4518 15.59H95.5438V15.104C95.5438 11.738 93.4918 10.424 91.3138 10.424C88.7218 10.424 86.9038 12.404 86.9038 15.248V15.392ZM88.5058 14.384C88.7578 12.71 89.7838 11.666 91.3138 11.666C92.8618 11.666 93.8698 12.44 94.0138 14.384H88.5058ZM102.6 20H104.094V14.24C104.094 12.548 105.354 11.72 106.578 11.72C107.874 11.72 108.576 12.404 108.576 14.06V20H110.07V14.24C110.07 12.548 111.33 11.72 112.554 11.72C113.85 11.72 114.552 12.404 114.552 14.06V20H116.046V14.168C116.046 11.432 114.57 10.424 112.878 10.424C111.708 10.424 110.304 10.964 109.656 12.188C109.17 10.928 108.108 10.424 106.902 10.424C105.552 10.424 104.526 11.144 104.094 12.026V10.586H102.6V20ZM118.281 15.392C118.281 18.29 120.171 20.162 122.835 20.162C124.959 20.162 126.525 19.172 126.849 17.282H125.355C125.157 18.38 124.311 18.92 122.853 18.92C120.927 18.92 119.901 17.732 119.829 15.59H126.921V15.104C126.921 11.738 124.869 10.424 122.691 10.424C120.099 10.424 118.281 12.404 118.281 15.248V15.392ZM119.883 14.384C120.135 12.71 121.161 11.666 122.691 11.666C124.239 11.666 125.247 12.44 125.391 14.384H119.883Z" fill="#ACACAC"/>
<g clip-path="url(#clip0)">
<path d="M54.2017 13.0002C43.5017 14.1002 33.0017 17.3002 24.4017 24.1002C18.2017 29.0002 13.7017 35.8002 11.0017 43.2002C9.00174 48.5002 8.00174 54.2002 7.70174 59.8002C7.60174 61.1002 7.60174 62.5002 7.60174 63.8002C5.80174 60.6002 4.00174 57.4002 2.00174 54.3002C1.30174 53.2002 -0.498262 54.2002 0.201738 55.3002C3.00174 59.6002 5.40174 64.2002 8.00174 68.6002C8.40174 69.3002 9.40174 69.2002 9.80174 68.6002C12.8017 64.2002 15.8017 59.8002 18.8017 55.4002C19.6017 54.3002 17.8017 53.3002 17.0017 54.4002C14.6017 57.9002 12.1017 61.5002 9.70174 65.0002C9.20174 56.8002 10.9017 48.1002 14.2017 40.7002C17.1017 34.3002 21.5017 28.7002 27.2017 24.5002C35.0017 18.7002 44.7017 16.0002 54.2017 15.0002C55.5017 14.9002 55.6017 12.9002 54.2017 13.0002Z" fill="#ACACAC"/>
</g>
<defs>
<clipPath id="clip0">
<rect width="55.2" height="56.2" fill="white" transform="translate(0 13)"/>
</clipPath>
</defs>
</svg>
